<svg width="182" height="213" viewBox="0 0 182 213" fill="none" xmlns="http://www.w3.org/2000/svg">
<path d="M133.289 64.9045C134.587 65.403 135.913 65.8256 137.26 66.1702C139.04 66.6071 140.044 66.8097 141.761 66.1381C141.822 66.1145 141.879 66.0912 141.934 66.0682C145.188 64.6736 147.971 62.3556 149.942 59.3962C151.913 56.4369 152.988 52.9639 153.036 49.4C153.045 49.2777 153.045 49.1492 153.045 49.0238C153.046 48.4198 153.018 47.8161 152.959 47.215C152.884 46.3962 152.754 45.5835 152.57 44.7823L152.587 44.7792C153.977 43.3465 154.512 41.3841 154.335 39.4122C154.213 38.0754 153.792 36.7838 153.104 35.6348C152.415 34.4857 151.476 33.5092 150.358 32.7788C148.607 31.669 146.632 30.9665 144.577 30.7223C144.025 30.6582 143.47 30.6258 142.915 30.6251H137.697C136.619 30.3709 135.524 30.1969 134.421 30.1047H134.413C123.911 29.227 115.629 36.2429 116.401 44.7792C116.407 44.7886 116.416 44.798 116.421 44.8074C116.644 45.1742 116.842 45.5221 117.016 45.8544C117.185 46.1648 117.328 46.4626 117.451 46.7447C118.409 48.9266 113.855 82.7785 115.489 83.2926C116.418 83.5842 120.166 58.394 119.494 63.1841C118.647 69.1937 128.451 63.1022 133.289 64.9045Z" fill="#2F2E41"/>
<path d="M117.468 126.099L102.911 157.352L158.911 151.636L147.221 121.634L117.468 126.099Z" fill="#FFB6B6"/>
<path d="M88.2449 188.759C97.983 192.026 108.245 193.411 118.493 192.842L122.949 185.559C122.949 185.559 123.136 188.272 123.414 192.418C128.293 191.848 133.107 190.82 137.795 189.346C146.686 186.544 155.019 182.203 163.467 178.2C165.178 167.922 165.82 152.073 156.36 142.846L105.444 152.248C105.444 152.248 97.2745 158.405 99.4599 160.611C101.645 162.813 101.984 162.472 100.548 163.919C99.112 165.366 96.0094 167.301 95.9778 168.566C95.9651 169.06 92.483 178.019 88.2449 188.759Z" fill="#2F2E41"/>
<path d="M126.36 65.7074L138.661 66.5722L146.612 74.3144L149.396 74.8153C151.899 75.265 154.151 76.6246 155.726 78.6363C157.3 80.6481 158.087 83.1721 157.937 85.7297C157.365 95.5085 156.082 110.12 153.402 114.86C149.246 122.211 145.813 119.904 149.246 122.211C152.679 124.517 154.983 122.705 153.402 126.35C151.82 129.994 155.539 134.669 155.539 134.669L157.02 136.161L155.45 136.81L105.417 143.37C105.417 143.37 109.743 123.769 107.037 118.954C104.332 114.139 97.7717 99.5838 103.626 93.8886L109.351 73.5886L119.198 70.6621L126.36 65.7074Z" fill="#2D6A4F"/>
<path d="M51.8941 146.157C52.7174 146.131 53.5251 145.924 54.2615 145.553C54.9979 145.181 55.6453 144.652 56.159 144.003C56.6728 143.355 57.0405 142.601 57.2368 141.795C57.4332 140.989 57.4534 140.15 57.2961 139.335L80.7655 123.318L77.9652 115.687L50.2282 134.916C48.887 135.285 47.7267 136.136 46.967 137.31C46.2073 138.483 45.9012 139.896 46.1065 141.282C46.3118 142.668 47.0144 143.929 48.0811 144.828C49.1478 145.726 50.5045 146.199 51.8941 146.157Z" fill="#FFB6B6"/>
<path d="M118.184 72.6299L121.594 73.9907L103.402 109.796L65.7402 135.665L60.3114 126.419L88.9796 101.466L100.457 79.2838C102.072 76.1622 104.778 73.7544 108.052 72.5255C111.326 71.2966 114.935 71.3338 118.184 72.6299Z" fill="#2D6A4F"/>
<path d="M133.15 62.5585C126.328 62.5585 120.798 56.9855 120.798 50.111C120.798 43.2364 126.328 37.6635 133.15 37.6635C139.972 37.6635 145.503 43.2364 145.503 50.111C145.503 56.9855 139.972 62.5585 133.15 62.5585Z" fill="#FFB6B6"/>
<path d="M122.409 44.8473C122.615 44.9568 122.818 45.0577 123.024 45.1586C123.238 45.2624 123.453 45.3662 123.67 45.4642C127.804 47.3524 131.171 47.5629 133.214 44.8473C133.27 43.4186 133.589 42.0128 134.155 40.7018C134.055 42.1669 134.438 43.6243 135.245 44.8473H139.359C143.596 47.6811 145.77 50.2843 142.829 59.5872C142.637 60.1983 141.324 81.9117 140.949 83.5809C147.363 81.1017 152.896 54.7786 153.036 47.8425C153.045 47.7301 153.045 47.6119 153.045 47.4966C153.046 46.941 153.018 46.3857 152.959 45.8332C152.883 45.079 152.753 44.3313 152.57 43.5961L152.587 43.5933C153.24 42.9646 153.737 42.191 154.041 41.3341C154.344 40.4773 154.445 39.5608 154.335 38.6579C153.259 37.2382 151.927 36.0353 150.41 35.112C149.03 34.4386 147.592 33.8944 146.113 33.4861C146.076 33.4774 146.044 33.4688 146.007 33.4601C145.555 33.3362 145.092 33.2237 144.628 33.1257C143.673 32.9239 142.708 32.7766 141.736 32.6847C141.665 32.6818 141.596 32.676 141.533 32.676C141.144 32.6763 140.763 32.7818 140.429 32.9816C140.426 32.9816 140.426 32.9845 140.42 32.9845C140.099 33.1778 139.833 33.4513 139.647 33.7785C139.461 34.1056 139.362 34.4755 139.359 34.8525H134.776C134.607 34.8525 134.438 34.8583 134.27 34.8669C127.887 35.1235 122.758 37.8737 122.429 44.1958C122.415 44.4149 122.409 44.6282 122.409 44.8473Z" fill="#2F2E41"/>
<path d="M149.504 45.3477C145.01 45.3477 141.366 41.6762 141.366 37.1472C141.366 32.6182 145.01 28.9467 149.504 28.9467C153.998 28.9467 157.642 32.6182 157.642 37.1472C157.642 41.6762 153.998 45.3477 149.504 45.3477Z" fill="#2F2E41"/>
<path d="M138.332 33.3542C139.256 37.7864 143.818 40.4372 148.181 39.3528C150.277 38.8321 152.081 37.4939 153.197 35.6325C154.314 33.7712 154.651 31.5391 154.134 29.4275C153.058 25.0302 147.762 26.2979 144.284 23.4289C139.365 19.3703 137.085 27.3771 138.332 33.3542Z" fill="#2F2E41"/>
<path d="M156.413 156.728C149.477 128.226 135.735 103.729 112.976 84.5354C112.095 83.0752 110.675 82.0268 109.028 81.62C107.381 81.2133 105.641 81.4815 104.19 82.3657L50.0864 115.423C48.6374 116.311 47.597 117.741 47.1934 119.401C46.7898 121.061 47.0559 122.814 47.9334 124.276C56.6203 153.522 69.6311 178.899 91.3703 196.469C92.2511 197.929 93.6707 198.977 95.3177 199.384C96.9646 199.791 98.7045 199.522 100.155 198.638L154.259 165.581C155.708 164.693 156.749 163.263 157.153 161.603C157.556 159.943 157.29 158.19 156.413 156.728Z" fill="#F2F2F2"/>
<path opacity="0.2" d="M146.796 166.333C148.245 165.446 149.286 164.015 149.689 162.355C150.093 160.696 149.827 158.942 148.949 157.48C142.014 128.979 128.271 104.481 105.512 85.2878C104.929 84.332 104.106 83.5484 103.126 83.0162L104.19 82.3657C105.641 81.4814 107.381 81.2132 109.028 81.62C110.675 82.0267 112.095 83.0751 112.976 84.5352C135.735 103.729 149.477 128.226 156.413 156.728C157.29 158.19 157.556 159.943 157.153 161.603C156.749 163.262 155.708 164.693 154.259 165.581L100.155 198.638C99.1925 199.222 98.0935 199.539 96.9698 199.557C95.8461 199.575 94.7376 199.293 93.7568 198.74L146.796 166.333Z" fill="black"/>
<path d="M83.3459 150.409L119.663 128.358C120.24 128.007 120.655 127.439 120.817 126.78C120.979 126.12 120.874 125.423 120.526 124.841C120.178 124.259 119.616 123.84 118.961 123.676C118.307 123.512 117.615 123.617 117.037 123.967L80.7201 146.018C80.1445 146.37 79.7309 146.937 79.5698 147.596C79.4088 148.255 79.5135 148.951 79.861 149.532C80.2085 150.113 80.7704 150.532 81.4236 150.696C82.0769 150.861 82.7681 150.758 83.3459 150.409Z" fill="white"/>
<path d="M104.473 121.167L112.463 116.316C113.042 115.967 113.459 115.4 113.624 114.741C113.788 114.082 113.686 113.383 113.34 112.8C112.993 112.216 112.431 111.796 111.777 111.63C111.122 111.464 110.43 111.567 109.851 111.916L109.837 111.924L101.847 116.776C101.271 117.128 100.858 117.695 100.696 118.354C100.535 119.013 100.64 119.709 100.987 120.291C101.335 120.872 101.897 121.291 102.55 121.455C103.204 121.619 103.895 121.516 104.473 121.167Z" fill="white"/>
<path d="M89.118 160.063L125.435 138.012C126.013 137.661 126.429 137.094 126.591 136.434C126.754 135.775 126.651 135.077 126.303 134.495C125.956 133.913 125.393 133.493 124.739 133.328C124.085 133.164 123.393 133.267 122.814 133.617L122.809 133.62L86.4921 155.671C85.9165 156.023 85.5029 156.591 85.3419 157.25C85.1809 157.908 85.2856 158.605 85.6331 159.186C85.9805 159.767 86.5425 160.186 87.1957 160.35C87.8489 160.514 88.5402 160.411 89.118 160.063Z" fill="white"/>
<path d="M78.7339 108.831C72.8755 108.831 68.1264 104.045 68.1264 98.142C68.1264 92.2384 72.8755 87.4527 78.7339 87.4527C84.5922 87.4527 89.3414 92.2384 89.3414 98.142C89.3414 104.045 84.5922 108.831 78.7339 108.831Z" fill="#3F3D56"/>
<path d="M97.0184 212.681C84.4971 212.681 74.3465 202.452 74.3465 189.834C74.3465 177.217 84.4971 166.988 97.0184 166.988C109.54 166.988 119.69 177.217 119.69 189.834C119.69 202.452 109.54 212.681 97.0184 212.681Z" fill="white"/>
<path d="M97.0184 213C101.565 213 106.01 211.641 109.79 209.096C113.57 206.55 116.517 202.933 118.257 198.7C119.997 194.467 120.452 189.809 119.565 185.315C118.678 180.822 116.489 176.694 113.274 173.454C110.059 170.214 105.963 168.008 101.503 167.114C97.044 166.22 92.4219 166.679 88.2213 168.432C84.0208 170.186 80.4305 173.155 77.9045 176.964C75.3785 180.774 74.0303 185.253 74.0302 189.834C74.0371 195.976 76.4613 201.864 80.7709 206.207C85.0805 210.55 90.9237 212.993 97.0184 213ZM97.0184 167.306C101.44 167.306 105.762 168.628 109.439 171.103C113.115 173.579 115.98 177.097 117.672 181.213C119.364 185.33 119.807 189.86 118.945 194.23C118.082 198.6 115.953 202.614 112.826 205.764C109.7 208.915 105.716 211.061 101.38 211.93C97.0431 212.799 92.5482 212.353 88.4632 210.648C84.3782 208.943 80.8868 206.055 78.4303 202.35C75.9739 198.646 74.6627 194.29 74.6628 189.834C74.6695 183.862 77.027 178.136 81.218 173.912C85.4091 169.689 91.0914 167.313 97.0184 167.306Z" fill="#3F3D56"/>
<path d="M100.111 201.725C100.503 201.725 100.889 201.633 101.239 201.457C101.589 201.28 101.894 201.024 102.129 200.708L108.314 192.398C108.513 192.131 108.658 191.827 108.74 191.503C108.823 191.18 108.841 190.843 108.794 190.513C108.748 190.182 108.637 189.864 108.468 189.577C108.299 189.289 108.076 189.038 107.811 188.838C107.546 188.638 107.244 188.492 106.923 188.409C106.602 188.326 106.268 188.308 105.94 188.356C105.612 188.403 105.296 188.515 105.011 188.685C104.726 188.856 104.477 189.081 104.279 189.348L100.232 194.785L89.8391 179.075C89.6554 178.797 89.4192 178.559 89.144 178.373C88.8688 178.187 88.56 178.058 88.2353 177.993C87.9105 177.927 87.5762 177.927 87.2513 177.992C86.9264 178.056 86.6173 178.185 86.3417 178.37C86.0662 178.555 85.8295 178.793 85.6452 179.071C85.4609 179.348 85.3326 179.659 85.2677 179.986C85.2027 180.314 85.2024 180.651 85.2666 180.978C85.3309 181.305 85.4585 181.617 85.6423 181.895L98.0127 200.593C98.2365 200.932 98.5375 201.211 98.8904 201.407C99.2434 201.604 99.638 201.713 100.041 201.724C100.065 201.725 100.088 201.725 100.111 201.725Z" fill="#2D6A4F"/>
<path d="M153.039 157.03C153.847 156.696 154.574 156.189 155.169 155.544C155.764 154.9 156.213 154.133 156.485 153.296C156.757 152.459 156.845 151.573 156.743 150.698C156.642 149.824 156.353 148.982 155.897 148.231L173.325 123.544L167.734 117.007L147.247 146.482C146.05 147.349 145.21 148.629 144.887 150.079C144.564 151.529 144.78 153.048 145.494 154.348C146.208 155.648 147.37 156.64 148.761 157.134C150.151 157.628 151.674 157.591 153.039 157.03Z" fill="#FFB6B6"/>
<path d="M152.639 78.7954C153.52 78.2726 154.558 78.0836 155.566 78.2624C156.573 78.4411 157.484 78.9759 158.136 79.7707L181.684 112.958L159.861 144.191L151.322 134.949L164.605 113.914L146.951 96.9757C145.501 93.7731 145.279 90.1423 146.329 86.7847C147.38 83.427 149.628 80.5807 152.639 78.7954Z" fill="#2D6A4F"/>
</svg>
